<?xml version="1.0" encoding="UTF-8" standalone="no"?>
<svg
   xmlns:dc="http://purl.org/dc/elements/1.1/"
   xmlns:cc="http://creativecommons.org/ns#"
   xmlns:rdf="http://www.w3.org/1999/02/22-rdf-syntax-ns#"
   xmlns:svg="http://www.w3.org/2000/svg"
   xmlns="http://www.w3.org/2000/svg"
   xmlns:sodipodi="http://sodipodi.sourceforge.net/DTD/sodipodi-0.dtd"
   xmlns:inkscape="http://www.inkscape.org/namespaces/inkscape"
   version="1.1"
   id="svg2"
   xml:space="preserve"
   width="382.76001"
   height="49.213333"
   viewBox="0 0 382.76001 49.213333"
   sodipodi:docname="LOGO_NUEVO_(2).eps"><metadata
     id="metadata8"><rdf:RDF><cc:Work
         rdf:about=""><dc:format>image/svg+xml</dc:format><dc:type
           rdf:resource="http://purl.org/dc/dcmitype/StillImage" /></cc:Work></rdf:RDF></metadata><defs
     id="defs6" /><sodipodi:namedview
     pagecolor="#ffffff"
     bordercolor="#666666"
     borderopacity="1"
     objecttolerance="10"
     gridtolerance="10"
     guidetolerance="10"
     inkscape:pageopacity="0"
     inkscape:pageshadow="2"
     inkscape:window-width="640"
     inkscape:window-height="480"
     id="namedview4" /><g
     id="g10"
     inkscape:groupmode="layer"
     inkscape:label="ink_ext_XXXXXX"
     transform="matrix(1.3333333,0,0,-1.3333333,0,49.213333)"><g
       id="g12"
       transform="scale(0.1)"><path
         d="m 175.902,166.461 c -2.722,-6.453 -5.781,-14.609 -9.183,-24.461 -3.403,9.852 -6.461,18.008 -9.168,24.461 L 69.8438,363.258 H 0 V 6.375 h 68.832 v 183.543 c 0,7.816 -0.332,17.164 -1.0234,28.043 4.082,-11.895 7.6562,-21.246 10.7227,-28.043 L 80.9492,184.801 158.391,5.875 h 7.132 l 0.004,-0.01953 0.016,0.01953 h 7.031 v 0.71484 l 0.133,-0.71484 77.465,178.941 h -0.199 l 2.402,5.102 c 3.066,6.797 6.629,16.148 10.707,28.043 -0.684,-10.879 -1.031,-20.227 -1.031,-28.043 V 6.375 h 68.828 V 363.258 H 265.121 L 175.902,166.461"
         style="fill:#000000;fill-opacity:1;fill-rule:nonzero;stroke:none"
         id="path14" /><path
         d="M 1461.16,363 1326.06,192.715 V 363 h -68.83 V 6.12109 h 68.83 V 95.3398 L 1392.33,176.91 1484.1,6.12109 h 80.56 L 1438.71,235.031 1542.74,363 h -81.58"
         style="fill:#000000;fill-opacity:1;fill-rule:nonzero;stroke:none"
         id="path16" /><path
         d="m 805.777,169.52 c -6.972,7.644 -13.597,14.187 -19.879,19.617 -6.293,5.445 -15.039,10.707 -26.257,15.812 -11.211,5.098 -20.067,8.828 -26.504,11.203 -6.461,2.391 -15.633,5.618 -27.535,9.7 -15.289,5.093 -26.512,9.086 -33.649,11.976 -7.137,2.891 -14.109,7.145 -20.902,12.738 -6.813,5.606 -10.207,11.993 -10.207,19.133 0,10.879 4.16,19.281 12.492,25.235 8.336,5.941 19.965,8.914 34.93,8.914 29.578,0 49.961,-12.571 61.183,-37.723 l 61.684,20.398 c -6.801,24.469 -20.649,44.356 -41.563,59.649 -20.898,15.301 -46.636,22.941 -77.222,22.941 -37.043,0 -66.457,-9.425 -88.207,-28.3 -21.746,-18.852 -32.633,-42.219 -32.633,-70.094 0,-13.602 2.461,-25.926 7.398,-36.961 4.934,-11.055 10.461,-19.875 16.567,-26.512 6.129,-6.633 15.113,-13.172 27.035,-19.633 11.879,-6.453 21.48,-11.05 28.793,-13.769 7.304,-2.715 18.097,-6.453 32.371,-11.219 12.57,-4.082 22.004,-7.383 28.301,-9.934 6.289,-2.539 13.511,-6.035 21.664,-10.457 8.156,-4.414 13.941,-9.347 17.332,-14.785 3.398,-5.429 5.101,-11.73 5.101,-18.859 0,-13.9337 -5.191,-24.6369 -15.55,-32.1173 C 730.152,69 716.129,65.25 698.469,65.25 681.457,65.25 666.164,70.3398 652.57,80.5547 638.98,90.75 628.273,104.332 620.453,121.336 L 557.75,97.8867 c 10.195,-30.5859 27.535,-54.5508 52.004,-71.8828 24.469,-17.33593 53.348,-26.00780625 86.668,-26.00780625 37.391,0 68.226,9.69921625 92.527,29.06250625 24.305,19.3672 36.469,45.8789 36.469,79.5314 0,12.238 -1.539,23.527 -4.598,33.906 -3.062,10.363 -8.074,19.367 -15.043,27.024"
         style="fill:#000000;fill-opacity:1;fill-rule:nonzero;stroke:none"
         id="path18" /><path
         d="m 1902.17,237.828 c -3.4,17.16 -9.1,33.746 -17.08,49.711 -8,15.977 -17.83,29.996 -29.57,42.078 -11.72,12.043 -26.69,21.649 -44.86,28.797 -18.2,7.141 -38.33,10.699 -60.43,10.699 -22.09,0 -42.23,-3.558 -60.41,-10.699 -18.19,-7.148 -33.13,-16.754 -44.86,-28.797 -11.73,-12.082 -21.69,-26.101 -29.83,-42.078 -8.17,-15.965 -13.94,-32.551 -17.33,-49.711 -3.4,-17.156 -5.1,-34.918 -5.1,-53.277 0,-18.352 1.7,-36.106 5.1,-53.266 3.39,-17.176 9.16,-33.7381 17.33,-49.7069 8.14,-15.9765 18.1,-30.0078 29.83,-42.0703 11.73,-12.0703 26.67,-21.6601 44.86,-28.7969 18.18,-7.1484 38.32,-10.71480625 60.41,-10.71480625 22.1,0 42.23,3.56640625 60.43,10.71480625 18.17,7.1368 33.14,16.7266 44.86,28.7969 11.74,12.0625 21.57,26.0938 29.57,42.0703 7.98,15.9688 13.68,32.5309 17.08,49.7069 3.4,17.16 5.09,34.914 5.09,53.266 0,18.359 -1.69,36.121 -5.09,53.277 m -70.87,-93.543 c -3.06,-13.262 -7.81,-25.918 -14.28,-37.988 -6.45,-12.0626 -15.47,-21.7579 -27.02,-29.0626 -11.55,-7.3047 -24.8,-10.9688 -39.77,-10.9688 -20.04,0 -36.87,6.3008 -50.47,18.8789 -13.6,12.5664 -22.93,27.3635 -28.04,44.3635 -5.1,16.972 -7.65,35.344 -7.65,55.043 0,13.937 1.54,27.453 4.6,40.539 3.05,13.082 7.72,25.652 14.02,37.73 6.28,12.055 15.3,21.739 27.02,29.063 11.73,7.293 25.23,10.957 40.52,10.957 15.3,0 28.73,-3.567 40.28,-10.703 11.56,-7.145 20.47,-16.571 26.77,-28.309 6.29,-11.719 10.96,-24.211 14.02,-37.469 3.06,-13.246 4.59,-27.191 4.59,-41.808 0,-13.582 -1.53,-27.016 -4.59,-40.266"
         style="fill:#000000;fill-opacity:1;fill-rule:nonzero;stroke:none"
         id="path20" /><path
         d="M 996.195,363 859.551,6.12109 H 933.48 L 961.016,80.0469 H 1098.67 L 1126.2,6.12109 h 73.93 L 1063.49,363 Z m -12.746,-220.25 35.171,92.797 c 5.44,13.59 9.18,24.305 11.22,32.117 2.04,-7.812 5.79,-18.527 11.23,-32.117 l 35.18,-92.797 h -92.801"
         style="fill:#000000;fill-opacity:1;fill-rule:nonzero;stroke:none"
         id="path22" /><path
         d="m 420.09,6.12109 h 68.832 V 363 H 420.09 V 6.12109"
         style="fill:#000000;fill-opacity:1;fill-rule:nonzero;stroke:none"
         id="path24" /><path
         d="m 175.902,166.461 c -2.722,-6.453 -5.781,-14.609 -9.183,-24.461 -3.403,9.852 -6.461,18.008 -9.168,24.461 L 69.8438,363.258 H 0 V 6.375 h 68.832 v 183.543 c 0,7.816 -0.332,17.164 -1.0234,28.043 4.082,-11.895 7.6562,-21.246 10.7227,-28.043 L 80.9492,184.801 158.391,5.875 h 7.132 l 0.004,-0.01953 0.016,0.01953 h 7.031 v 0.71484 l 0.133,-0.71484 77.465,178.941 h -0.199 l 2.402,5.102 c 3.066,6.797 6.629,16.148 10.707,28.043 -0.684,-10.879 -1.031,-20.227 -1.031,-28.043 V 6.375 h 68.828 V 363.258 H 265.121 L 175.902,166.461"
         style="fill:#000000;fill-opacity:1;fill-rule:nonzero;stroke:none"
         id="path26" /><path
         d="m 805.777,169.52 c -6.972,7.644 -13.597,14.187 -19.879,19.617 -6.293,5.445 -15.039,10.707 -26.257,15.812 -11.211,5.098 -20.067,8.828 -26.504,11.203 -6.461,2.391 -15.633,5.618 -27.535,9.7 -15.289,5.093 -26.512,9.086 -33.649,11.976 -7.137,2.891 -14.109,7.145 -20.902,12.738 -6.813,5.606 -10.207,11.993 -10.207,19.133 0,10.879 4.16,19.281 12.492,25.235 8.336,5.941 19.965,8.914 34.93,8.914 29.578,0 49.961,-12.571 61.183,-37.723 l 61.684,20.398 c -6.801,24.469 -20.649,44.356 -41.563,59.649 -20.898,15.301 -46.636,22.941 -77.222,22.941 -37.043,0 -66.457,-9.425 -88.207,-28.3 -21.746,-18.852 -32.633,-42.219 -32.633,-70.094 0,-13.602 2.461,-25.926 7.398,-36.961 4.934,-11.055 10.461,-19.875 16.567,-26.512 6.129,-6.633 15.113,-13.172 27.035,-19.633 11.879,-6.453 21.48,-11.05 28.793,-13.769 7.304,-2.715 18.097,-6.453 32.371,-11.219 12.57,-4.082 22.004,-7.383 28.301,-9.934 6.289,-2.539 13.511,-6.035 21.664,-10.457 8.156,-4.414 13.941,-9.347 17.332,-14.785 3.398,-5.429 5.101,-11.73 5.101,-18.859 0,-13.9337 -5.191,-24.6369 -15.55,-32.1173 C 730.152,69 716.129,65.25 698.469,65.25 681.457,65.25 666.164,70.3398 652.57,80.5547 638.98,90.75 628.273,104.332 620.453,121.336 L 557.75,97.8867 c 10.195,-30.5859 27.535,-54.5508 52.004,-71.8828 24.469,-17.33593 53.348,-26.00780625 86.668,-26.00780625 37.391,0 68.226,9.69921625 92.527,29.06250625 24.305,19.3672 36.469,45.8789 36.469,79.5314 0,12.238 -1.539,23.527 -4.598,33.906 -3.062,10.363 -8.074,19.367 -15.043,27.024"
         style="fill:#000000;fill-opacity:1;fill-rule:nonzero;stroke:none"
         id="path28" /><path
         d="m 1902.17,237.828 c -3.4,17.16 -9.1,33.746 -17.08,49.711 -8,15.977 -17.83,29.996 -29.57,42.078 -11.72,12.043 -26.69,21.649 -44.86,28.797 -18.2,7.141 -38.33,10.699 -60.43,10.699 -22.09,0 -42.23,-3.558 -60.41,-10.699 -18.19,-7.148 -33.13,-16.754 -44.86,-28.797 -11.73,-12.082 -21.69,-26.101 -29.83,-42.078 -8.17,-15.965 -13.94,-32.551 -17.33,-49.711 -3.4,-17.156 -5.1,-34.918 -5.1,-53.277 0,-18.352 1.7,-36.106 5.1,-53.266 3.39,-17.176 9.16,-33.7381 17.33,-49.7069 8.14,-15.9765 18.1,-30.0078 29.83,-42.0703 11.73,-12.0703 26.67,-21.6601 44.86,-28.7969 18.18,-7.1484 38.32,-10.71480625 60.41,-10.71480625 22.1,0 42.23,3.56640625 60.43,10.71480625 18.17,7.1368 33.14,16.7266 44.86,28.7969 11.74,12.0625 21.57,26.0938 29.57,42.0703 7.98,15.9688 13.68,32.5309 17.08,49.7069 3.4,17.16 5.09,34.914 5.09,53.266 0,18.359 -1.69,36.121 -5.09,53.277 m -70.87,-93.543 c -3.06,-13.262 -7.81,-25.918 -14.28,-37.988 -6.45,-12.0626 -15.47,-21.7579 -27.02,-29.0626 -11.55,-7.3047 -24.8,-10.9688 -39.77,-10.9688 -20.04,0 -36.87,6.3008 -50.47,18.8789 -13.6,12.5664 -22.93,27.3635 -28.04,44.3635 -5.1,16.972 -7.65,35.344 -7.65,55.043 0,13.937 1.54,27.453 4.6,40.539 3.05,13.082 7.72,25.652 14.02,37.73 6.28,12.055 15.3,21.739 27.02,29.063 11.73,7.293 25.23,10.957 40.52,10.957 15.3,0 28.73,-3.567 40.28,-10.703 11.56,-7.145 20.47,-16.571 26.77,-28.309 6.29,-11.719 10.96,-24.211 14.02,-37.469 3.06,-13.246 4.59,-27.191 4.59,-41.808 0,-13.582 -1.53,-27.016 -4.59,-40.266"
         style="fill:#000000;fill-opacity:1;fill-rule:nonzero;stroke:none"
         id="path30" /><path
         d="M 996.195,363 859.551,6.12109 H 933.48 L 961.016,80.0469 H 1098.67 L 1126.2,6.12109 h 73.93 L 1063.49,363 Z m -12.746,-220.25 35.171,92.797 c 5.44,13.59 9.18,24.305 11.22,32.117 2.04,-7.812 5.79,-18.527 11.23,-32.117 l 35.18,-92.797 h -92.801"
         style="fill:#000000;fill-opacity:1;fill-rule:nonzero;stroke:none"
         id="path32" /><path
         d="M 1461.16,363 1326.06,192.715 V 363 h -68.83 V 6.12109 h 68.83 V 95.3398 L 1392.33,176.91 1484.1,6.12109 h 80.56 L 1438.71,235.031 1542.74,363 h -81.58"
         style="fill:#000000;fill-opacity:1;fill-rule:nonzero;stroke:none"
         id="path34" /><path
         d="m 2403.84,90.2891 h -188.5 V 278.82 h 188.5 z M 2240.1,115.055 h 138.98 V 254.063 H 2240.1 V 115.055"
         style="fill:#000000;fill-opacity:1;fill-rule:nonzero;stroke:none"
         id="path36" /><path
         d="m 2637.28,90.2891 h -188.5 V 278.82 h 188.5 z m -163.74,24.7659 h 138.98 V 254.063 H 2473.54 V 115.055"
         style="fill:#000000;fill-opacity:1;fill-rule:nonzero;stroke:none"
         id="path38" /><path
         d="M 2682.22,90.2891 H 2870.7 V 278.82 h -188.48 z m 24.74,163.7739 h 138.99 V 115.055 h -138.99 v 139.008"
         style="fill:#000000;fill-opacity:1;fill-rule:nonzero;stroke:none"
         id="path40" /><path
         d="m 2053.27,0.0078125 h 9.42 V 369.109 h -9.42 V 0.0078125"
         style="fill:#000000;fill-opacity:1;fill-rule:nonzero;stroke:none"
         id="path42" /></g></g></svg>
