<svg width="50" height="50" viewBox="0 0 50 50" fill="none" xmlns="http://www.w3.org/2000/svg">
<path d="M25.0244 4.16666C13.5535 4.16666 4.21555 13.4966 4.21139 24.9674C4.2093 28.6341 5.16969 32.2137 6.99052 35.3678L4.16663 45.8333L15.0675 43.2576C18.1071 44.916 21.5288 45.7865 25.0122 45.7886H25.0203C36.4891 45.7886 45.823 36.4565 45.8292 24.9878C45.8334 19.4274 43.6712 14.1994 39.742 10.2661C35.8128 6.33485 30.591 4.16874 25.0244 4.16666ZM25.0203 8.33332C29.4703 8.33541 33.6523 10.0704 36.796 13.2121C39.9398 16.3579 41.6667 20.5379 41.6626 24.9837C41.6584 34.1587 34.1954 41.6219 25.0162 41.6219C22.2391 41.6198 19.4883 40.9225 17.0654 39.5996L15.6616 38.8346L14.1113 39.2008L10.0097 40.1693L11.0107 36.4502L11.4624 34.7819L10.5997 33.2845C9.14556 30.7678 8.37597 27.8904 8.37805 24.9674C8.38222 15.7966 15.8474 8.33332 25.0203 8.33332ZM17.6595 15.3646C17.3115 15.3646 16.749 15.4948 16.2719 16.0156C15.7948 16.5344 14.449 17.7908 14.449 20.3491C14.449 22.9074 16.3126 25.3804 16.573 25.7283C16.8314 26.0742 20.1703 31.4901 25.4557 33.5734C29.8474 35.3046 30.7393 34.963 31.6935 34.8755C32.6476 34.7901 34.7717 33.6202 35.205 32.4056C35.6384 31.191 35.6394 30.1462 35.5102 29.9316C35.381 29.715 35.0341 29.5858 34.5133 29.3253C33.9946 29.0649 31.4381 27.8096 30.9611 27.6367C30.484 27.4638 30.135 27.3763 29.7892 27.8971C29.4433 28.418 28.4495 29.5858 28.1453 29.9316C27.8411 30.2795 27.539 30.3263 27.0182 30.0659C26.4974 29.8034 24.8227 29.2529 22.8352 27.4821C21.2894 26.105 20.2463 24.4059 19.9422 23.8851C19.6401 23.3663 19.9137 23.0814 20.1741 22.8231C20.4074 22.5897 20.6909 22.2158 20.9513 21.9116C21.2096 21.6074 21.2992 21.3907 21.4721 21.0449C21.645 20.6991 21.5565 20.3939 21.4274 20.1335C21.2982 19.873 20.2867 17.3052 19.8242 16.276C19.4346 15.4114 19.0231 15.3914 18.6523 15.3768C18.3502 15.3643 18.0053 15.3646 17.6595 15.3646Z" fill="#040404"/>
</svg>
