<svg width="35" height="36" viewBox="0 0 35 36" fill="none" xmlns="http://www.w3.org/2000/svg">
<path d="M31.5 0.758606H3.5C1.56975 0.758606 0 2.72418 0 5.14115V31.4364C0 33.8534 1.56975 35.819 3.5 35.819H31.5C33.4302 35.819 35 33.8534 35 31.4364V5.14115C35 2.72418 33.4302 0.758606 31.5 0.758606ZM31.5 5.14115V6.26089L17.5 19.8972L3.5 6.26308V5.14115H31.5ZM3.5 31.4364V11.8114L16.4255 24.4002C16.7319 24.7016 17.1103 24.8655 17.5 24.8655C17.8897 24.8655 18.2681 24.7016 18.5745 24.4002L31.5 11.8114L31.5035 31.4364H3.5Z" fill="#040404"/>
</svg>
