<svg width="32" height="32" viewBox="0 0 32 32" fill="none" xmlns="http://www.w3.org/2000/svg">
<path d="M15.9986 9.836C14.3634 9.836 12.7953 10.4856 11.639 11.6418C10.4828 12.798 9.83325 14.3662 9.83325 16.0013C9.83325 17.6365 10.4828 19.2047 11.639 20.3609C12.7953 21.5171 14.3634 22.1667 15.9986 22.1667C17.6337 22.1667 19.2019 21.5171 20.3581 20.3609C21.5144 19.2047 22.1639 17.6365 22.1639 16.0013C22.1639 14.3662 21.5144 12.798 20.3581 11.6418C19.2019 10.4856 17.6337 9.836 15.9986 9.836ZM15.9986 20.0053C14.9363 20.0053 13.9175 19.5833 13.1664 18.8322C12.4152 18.081 11.9933 17.0623 11.9933 16C11.9933 14.9377 12.4152 13.9189 13.1664 13.1678C13.9175 12.4167 14.9363 11.9947 15.9986 11.9947C17.0609 11.9947 18.0796 12.4167 18.8308 13.1678C19.5819 13.9189 20.0039 14.9377 20.0039 16C20.0039 17.0623 19.5819 18.081 18.8308 18.8322C18.0796 19.5833 17.0609 20.0053 15.9986 20.0053Z" fill="#040404"/>
<path d="M22.408 11.0467C23.2019 11.0467 23.8454 10.4031 23.8454 9.60933C23.8454 8.81551 23.2019 8.172 22.408 8.172C21.6142 8.172 20.9707 8.81551 20.9707 9.60933C20.9707 10.4031 21.6142 11.0467 22.408 11.0467Z" fill="#040404"/>
<path d="M27.3774 8.148C27.0687 7.35091 26.597 6.62704 25.9925 6.02275C25.3879 5.41845 24.6639 4.94703 23.8667 4.63867C22.9338 4.28848 21.9483 4.09912 20.952 4.07867C19.668 4.02267 19.2614 4.00667 16.0054 4.00667C12.7494 4.00667 12.332 4.00667 11.0587 4.07867C10.0632 4.09808 9.07836 4.28747 8.14669 4.63867C7.34927 4.94667 6.62504 5.41796 6.02046 6.02231C5.41589 6.62665 4.94432 7.3507 4.63602 8.148C4.28576 9.08082 4.09684 10.0665 4.07735 11.0627C4.02002 12.3453 4.00269 12.752 4.00269 16.0093C4.00269 19.2653 4.00269 19.68 4.07735 20.956C4.09735 21.9533 4.28535 22.9373 4.63602 23.872C4.94519 24.669 5.41721 25.3928 6.02193 25.997C6.62665 26.6013 7.35077 27.0728 8.14802 27.3813C9.07793 27.7456 10.0632 27.9485 11.0614 27.9813C12.3454 28.0373 12.752 28.0547 16.008 28.0547C19.264 28.0547 19.6814 28.0547 20.9547 27.9813C21.9508 27.9611 22.9363 27.7722 23.8694 27.4227C24.6664 27.1136 25.3902 26.6418 25.9946 26.0373C26.5991 25.4328 27.0709 24.709 27.38 23.912C27.7307 22.9787 27.9187 21.9947 27.9387 20.9973C27.996 19.7147 28.0134 19.308 28.0134 16.0507C28.0134 12.7933 28.0134 12.38 27.9387 11.104C27.9232 10.0937 27.7333 9.09367 27.3774 8.148ZM25.7534 20.8573C25.7448 21.6257 25.6045 22.387 25.3387 23.108C25.1385 23.6265 24.8319 24.0973 24.4388 24.4902C24.0456 24.8831 23.5746 25.1894 23.056 25.3893C22.343 25.6539 21.5898 25.7942 20.8294 25.804C19.5627 25.8627 19.2054 25.8773 15.9574 25.8773C12.7067 25.8773 12.3747 25.8773 11.084 25.804C10.3239 25.7947 9.57112 25.6544 8.85869 25.3893C8.33827 25.1906 7.86535 24.8849 7.47054 24.4919C7.07572 24.099 6.7678 23.6275 6.56669 23.108C6.30461 22.3947 6.16443 21.6425 6.15202 20.8827C6.09469 19.616 6.08135 19.2587 6.08135 16.0107C6.08135 12.7613 6.08135 12.4293 6.15202 11.1373C6.16064 10.3694 6.30089 9.60856 6.56669 8.888C6.97335 7.836 7.80669 7.008 8.85869 6.60533C9.57147 6.34152 10.3241 6.20129 11.084 6.19067C12.352 6.13333 12.708 6.11733 15.9574 6.11733C19.2067 6.11733 19.54 6.11733 20.8294 6.19067C21.5899 6.19982 22.3432 6.3401 23.056 6.60533C23.5746 6.8057 24.0455 7.11227 24.4386 7.50537C24.8318 7.89848 25.1383 8.36943 25.3387 8.888C25.6008 9.60127 25.7409 10.3535 25.7534 11.1133C25.8107 12.3813 25.8254 12.7373 25.8254 15.9867C25.8254 19.2347 25.8254 19.584 25.768 20.8587H25.7534V20.8573Z" fill="#040404"/>
</svg>
