<svg width="32" height="32" viewBox="0 0 32 32" fill="none" xmlns="http://www.w3.org/2000/svg">
<path d="M26.0385 9.67L25.9589 9.6525C24.475 9.32618 23.1326 8.53817 22.1243 7.40155C21.1363 6.2877 20.5189 4.89518 20.3562 3.41666H17.2433L17.2433 20.8925L17.2433 20.8933M26.0385 9.67L9.55995 23.2133C10.0459 23.8598 10.723 24.3369 11.4953 24.5772C12.2675 24.8174 13.0957 24.8086 13.8627 24.552C14.6297 24.2953 15.2964 23.8039 15.7685 23.1473C16.2407 22.4906 16.4942 21.7021 16.4933 20.8933H17.2433M26.0385 9.67H26.0988C26.3166 9.71246 26.5361 9.74483 26.7566 9.76704M26.0385 9.67L26.7566 9.76704M17.2433 20.8933C17.2442 21.8592 16.9413 22.8009 16.3775 23.5851C15.8135 24.3695 15.0169 24.9566 14.1007 25.2632C13.1845 25.5698 12.195 25.5803 11.2725 25.2933C10.3506 25.0065 9.54227 24.4371 8.96178 23.6658M17.2433 20.8933L8.96178 23.6658M8.96178 23.6658C8.44241 22.9825 8.12437 22.1677 8.04359 21.3133C7.96274 20.4581 8.12277 19.5974 8.50559 18.8284C8.88841 18.0595 9.47874 17.4129 10.2098 16.962C10.9399 16.5117 11.7813 16.2743 12.6391 16.2767M8.96178 23.6658L13.0633 17.0472C12.9228 17.0327 12.7815 17.0259 12.6399 17.0267L12.6426 16.2767C12.6414 16.2767 12.6403 16.2767 12.6391 16.2767M12.6391 16.2767C12.7809 16.276 12.9224 16.2817 13.0633 16.2939V13.2224C12.8752 13.2141 12.6868 13.2121 12.4985 13.2164C11.0039 13.2567 9.55346 13.7317 8.32465 14.5834C7.09542 15.4354 6.14132 16.6274 5.5792 18.0134C5.01707 19.3994 4.87131 20.9192 5.15976 22.3868C5.44813 23.8539 6.15794 25.2051 7.20232 26.2751C8.27321 27.3635 9.64339 28.109 11.1389 28.4172C12.6348 28.7254 14.1886 28.5819 15.6029 28.005C17.0171 27.4281 18.2279 26.4438 19.0815 25.1772C19.9349 23.9108 20.3927 22.4193 20.3966 20.8922C20.3966 20.892 20.3966 20.8917 20.3966 20.8915L20.3966 11.56V10.1026L21.5826 10.9497C23.1065 12.0383 24.8981 12.6802 26.7566 12.8115V9.76704M12.6391 16.2767L26.7566 9.76704" stroke="#040404" stroke-width="1.5"/>
</svg>
