<svg width="28" height="18" viewBox="0 0 28 18" fill="none" xmlns="http://www.w3.org/2000/svg">
<path d="M12.68 16.64C12.36 16.64 12.2 16.38 12.2 15.86C12.2 14.8867 12.7333 13.28 13.8 11.04C13.6667 7.85333 13.0333 5.43333 11.9 3.78C10.9533 2.40667 9.83333 1.72 8.54 1.72C7.67333 1.72 6.92667 2.02 6.3 2.62C5.67333 3.22 5.36 3.94667 5.36 4.8C5.36 5.21333 5.44 5.63333 5.6 6.06C6.16 7.40667 6.96 8.37333 8 8.96C8.08 9 8.1 9.06 8.06 9.14C7.99333 9.20667 7.93333 9.22 7.88 9.18C6.50667 8.43333 5.54667 7.39333 5 6.06C4.86667 5.71333 4.76667 5.38 4.7 5.06C4.63333 4.72667 4.6 4.4 4.6 4.08C4.6 2.96 4.98 2.04 5.74 1.32C6.46 0.613332 7.37333 0.259999 8.48 0.259999C10.32 0.259999 11.8067 1.22 12.94 3.14C13.94 4.83333 14.52 6.93333 14.68 9.44C15.2267 8.53333 15.7867 7.69333 16.36 6.92C16.9467 6.13333 17.56 5.41333 18.2 4.76C19.6933 3.22667 21.1733 2.22 22.64 1.74C22.7467 1.7 22.8667 1.66667 23 1.64C23.1467 1.61333 23.3067 1.58667 23.48 1.56C23.4533 1.53333 23.66 1.5 24.1 1.46C24.1667 1.44667 24.2333 1.44 24.3 1.44C24.38 1.44 24.4467 1.44 24.5 1.44C25.66 1.44 26.24 1.88 26.24 2.76C26.24 3.08 26.14 3.38 25.94 3.66C25.7133 3.96667 25.4267 4.12 25.08 4.12C24.7867 4.12 24.56 4.02667 24.4 3.84C24.2267 3.66667 24.14 3.46 24.14 3.22C24.14 2.58 24.4533 2.26 25.08 2.26C25.3867 2.26 25.6067 2.38 25.74 2.62C25.6867 2.24667 25.36 2.02667 24.76 1.96C23.92 1.88 23.02 2.62 22.06 4.18C21.2333 5.54 20.5067 7.24667 19.88 9.3C19.28 11.2733 18.98 12.9067 18.98 14.2C18.98 15.32 19.2333 15.88 19.74 15.88C20.1 15.88 20.54 15.5467 21.06 14.88C21.5667 14.24 22.1667 13.2 22.86 11.76C22.9133 11.6267 22.98 11.5467 23.06 11.52H23.08C23.1333 11.52 23.16 11.5667 23.16 11.66C23.16 11.7667 23.1333 11.8733 23.08 11.98C22.3467 13.4733 21.8933 14.3467 21.72 14.6C21.0533 15.6533 20.3933 16.22 19.74 16.3C19.7 16.3 19.66 16.3 19.62 16.3C19.58 16.3133 19.54 16.32 19.5 16.32C19.02 16.32 18.5733 16.1467 18.16 15.8C17.5733 15.28 17.28 14.4867 17.28 13.42C17.28 12.1533 17.7133 10.5733 18.58 8.68C19.2867 7.17333 20.1267 5.73333 21.1 4.36C21.9133 3.21333 22.7133 2.38667 23.5 1.88C22.0333 2.29333 20.44 3.38 18.72 5.14C17.2667 6.63333 15.9267 8.39333 14.7 10.42C14.7267 13.1533 14.2333 15.1533 13.22 16.42C13.1 16.5667 12.92 16.64 12.68 16.64ZM2.46 17.9C1.9 17.9 1.46667 17.74 1.16 17.42C0.893333 17.1533 0.76 16.8133 0.76 16.4C0.76 16.0267 0.88 15.7 1.12 15.42C1.34667 15.1533 1.64667 15.02 2.02 15.02C2.27333 15.02 2.49333 15.1133 2.68 15.3C2.82667 15.46 2.9 15.66 2.9 15.9C2.9 16.22 2.78 16.48 2.54 16.68C2.32667 16.88 2.08667 16.98 1.82 16.98C1.5 16.98 1.25333 16.8533 1.08 16.6C1.10667 16.8133 1.22667 16.9933 1.44 17.14C1.66667 17.2867 1.92 17.36 2.2 17.36C2.33333 17.36 2.46667 17.34 2.6 17.3C4.02667 16.9 5.52667 15.5333 7.1 13.2C7.88667 12.0267 8.62 10.72 9.3 9.28C9.99333 7.82667 10.6267 6.24 11.2 4.52C11.28 4.28 11.3533 4.16 11.42 4.16C11.4867 4.16 11.5267 4.20667 11.54 4.3C11.5533 4.39333 11.5533 4.48 11.54 4.56C11.1533 6.05333 10.7733 7.37333 10.4 8.52C10.04 9.65333 9.68667 10.6133 9.34 11.4C7.72667 15.04 5.78 17.16 3.5 17.76C3.14 17.8533 2.79333 17.9 2.46 17.9ZM23.8594 16.08C23.3394 16.08 22.8927 15.9133 22.5194 15.58C22.3194 15.3933 22.1727 15.18 22.0794 14.94C21.9994 14.6867 21.9594 14.4 21.9594 14.08C21.9594 12.8533 22.466 11.6333 23.4794 10.42C24.3327 9.39333 25.2194 8.88 26.1394 8.88C26.446 8.88 26.706 8.96 26.9194 9.12C27.146 9.30667 27.2594 9.54667 27.2594 9.84C27.2594 10.5733 26.7727 11.3067 25.7994 12.04C25.4927 12.2667 25.086 12.4667 24.5794 12.64C24.0194 12.8267 23.6127 12.92 23.3594 12.92C23.1727 13.3733 23.0794 13.8533 23.0794 14.36C23.0794 15.2267 23.3994 15.66 24.0394 15.66C24.8794 15.66 25.666 15.1133 26.3994 14.02L26.4794 13.9L26.8194 14.04L26.7594 14.16C26.426 14.8267 26.006 15.3133 25.4994 15.62C24.9927 15.9267 24.446 16.08 23.8594 16.08ZM23.4794 12.58C23.706 12.58 24.0194 12.5067 24.4194 12.36C24.646 12.2667 24.8594 12.1667 25.0594 12.06C25.2727 11.9533 25.4594 11.8333 25.6194 11.7C26.3527 11.0867 26.7194 10.44 26.7194 9.76C26.7194 9.46667 26.6127 9.32 26.3994 9.32C26.026 9.32 25.4594 9.78 24.6994 10.7C24.3127 11.1667 23.906 11.7933 23.4794 12.58Z" fill="#040404"/>
</svg>
