<svg width="31" height="30" viewBox="0 0 31 30" fill="none" xmlns="http://www.w3.org/2000/svg">
<path d="M15.118 2.5C13.8882 2.5 12.686 2.86656 11.6635 3.55331C10.6409 4.24007 9.84395 5.21619 9.37333 6.35823C8.90271 7.50027 8.77957 8.75693 9.01949 9.96931C9.25941 11.1817 9.85161 12.2953 10.7212 13.1694C11.5908 14.0435 12.6987 14.6388 13.9049 14.8799C15.1111 15.1211 16.3613 14.9973 17.4975 14.5242C18.6336 14.0512 19.6048 13.2501 20.288 12.2223C20.9712 11.1945 21.3359 9.98613 21.3359 8.75C21.3359 7.0924 20.6808 5.50269 19.5147 4.33058C18.3486 3.15848 16.7671 2.5 15.118 2.5ZM15.118 12.5C14.3801 12.5 13.6588 12.2801 13.0453 11.868C12.4317 11.456 11.9536 10.8703 11.6712 10.1851C11.3888 9.49984 11.3149 8.74584 11.4589 8.01841C11.6028 7.29098 11.9582 6.6228 12.4799 6.09835C13.0017 5.5739 13.6664 5.21675 14.3901 5.07206C15.1138 4.92736 15.864 5.00162 16.5457 5.28545C17.2274 5.56928 17.81 6.04993 18.22 6.66661C18.6299 7.2833 18.8487 8.00832 18.8487 8.75C18.8487 9.74456 18.4557 10.6984 17.756 11.4017C17.0564 12.1049 16.1074 12.5 15.118 12.5ZM26.3103 26.25V25C26.3103 22.6794 25.3931 20.4538 23.7606 18.8128C22.1281 17.1719 19.9139 16.25 17.6051 16.25H12.6308C10.322 16.25 8.10786 17.1719 6.47533 18.8128C4.8428 20.4538 3.92566 22.6794 3.92566 25V26.25H6.41284V25C6.41284 23.3424 7.06794 21.7527 8.23403 20.5806C9.40012 19.4085 10.9817 18.75 12.6308 18.75H17.6051C19.2542 18.75 20.8358 19.4085 22.0019 20.5806C23.168 21.7527 23.8231 23.3424 23.8231 25V26.25H26.3103Z" fill="#040404"/>
</svg>
