<?xml version="1.0" standalone="no"?>
<!DOCTYPE svg PUBLIC "-//W3C//DTD SVG 20010904//EN"
 "http://www.w3.org/TR/2001/REC-SVG-20010904/DTD/svg10.dtd">
<svg version="1.0" xmlns="http://www.w3.org/2000/svg"
 width="85.000000pt" height="91.000000pt" viewBox="0 0 85.000000 91.000000"
 preserveAspectRatio="xMidYMid meet">

<g transform="translate(0.000000,91.000000) scale(0.100000,-0.100000)"
fill="#000000" stroke="none">
<path d="M390 746 c-14 -7 -50 -19 -80 -26 -69 -16 -106 -34 -114 -57 -6 -15
-5 -15 13 1 18 17 191 69 191 58 0 -2 -33 -45 -74 -96 -78 -96 -176 -234 -176
-248 0 -21 21 -3 60 50 24 31 54 69 67 84 24 25 26 25 44 10 17 -14 19 -25 13
-70 -4 -35 -2 -57 6 -67 14 -17 48 -19 70 -5 10 6 3 7 -24 3 l-39 -6 7 59 c7
64 23 84 65 84 14 0 45 9 69 20 118 53 178 146 119 185 -21 13 -29 13 -73 0
-27 -8 -70 -28 -96 -44 -27 -17 -48 -29 -48 -28 0 2 11 18 25 37 43 58 30 85
-25 56z m218 -51 c4 -30 -50 -88 -115 -122 -82 -44 -117 -49 -148 -25 l-25 20
55 49 c72 65 150 105 195 101 26 -2 36 -8 38 -23z m-273 -155 c3 -5 1 -10 -4
-10 -6 0 -11 5 -11 10 0 6 2 10 4 10 3 0 8 -4 11 -10z"/>
<path d="M560 428 c-54 -25 -100 -86 -107 -140 -11 -77 55 -94 123 -32 l39 35
-41 -31 c-29 -22 -50 -31 -70 -28 -27 3 -29 6 -28 49 0 34 7 54 28 82 16 20
35 37 42 37 8 0 14 4 14 9 0 5 17 16 38 24 20 9 30 16 22 16 -8 0 -35 -9 -60
-21z"/>
<path d="M643 428 c1 -6 -9 -17 -23 -25 -14 -7 -19 -13 -12 -13 22 0 52 20 52
35 0 8 -4 15 -10 15 -5 0 -9 -5 -7 -12z"/>
<path d="M455 405 c-25 -12 -26 -14 -5 -9 28 7 60 23 45 23 -5 0 -23 -6 -40
-14z"/>
</g>
</svg>
