<?xml version="1.0" standalone="no"?>
<!DOCTYPE svg PUBLIC "-//W3C//DTD SVG 20010904//EN"
 "http://www.w3.org/TR/2001/REC-SVG-20010904/DTD/svg10.dtd">
<svg version="1.0" xmlns="http://www.w3.org/2000/svg"
 width="500.000000pt" height="500.000000pt" viewBox="0 0 500.000000 500.000000"
 preserveAspectRatio="xMidYMid meet">

<g transform="translate(0.000000,500.000000) scale(0.100000,-0.100000)"
fill="#000000" stroke="none">
<path d="M2480 4173 c-115 -89 -291 -154 -635 -234 -334 -77 -433 -114 -522
-193 -67 -60 -96 -123 -101 -214 -3 -53 1 -86 13 -118 24 -62 30 -48 9 21 -58
200 84 335 433 410 497 108 665 160 742 229 l24 21 -7 -30 c-16 -67 -84 -161
-342 -466 -432 -513 -1084 -1409 -1084 -1488 0 -29 26 -91 39 -91 5 0 56 69
113 153 634 935 1322 1572 1910 1769 205 68 340 64 413 -13 26 -26 30 -39 33
-99 4 -63 1 -77 -30 -142 -65 -135 -267 -338 -477 -479 -197 -133 -405 -222
-632 -273 -157 -34 -249 -43 -249 -24 0 24 -58 97 -93 118 -78 48 -177 11
-177 -66 0 -67 88 -124 192 -124 20 0 20 -4 14 -63 -3 -35 -19 -117 -35 -183
-71 -291 -71 -414 2 -493 50 -53 155 -67 278 -36 173 44 486 242 694 439 57
54 33 37 -116 -83 -264 -214 -499 -336 -670 -348 -100 -7 -141 11 -164 72 -21
54 -12 117 46 343 28 106 42 188 46 253 l6 97 81 6 c116 10 309 51 434 91 143
47 385 169 501 252 116 83 294 257 346 338 108 166 122 325 38 426 -105 124
-376 98 -728 -71 -219 -106 -501 -307 -810 -579 l-120 -105 60 69 c34 39 124
142 202 230 345 393 467 584 423 662 -8 14 -24 32 -35 39 -18 11 -26 8 -65
-23z m-472 -1171 c13 -8 32 -33 43 -55 26 -50 15 -60 -61 -51 -66 8 -87 17
-95 45 -23 71 43 106 113 61z"/>
<path d="M1350 4089 c0 -5 5 -7 10 -4 6 3 10 8 10 11 0 2 -4 4 -10 4 -5 0 -10
-5 -10 -11z"/>
<path d="M1300 4066 c7 -7 13 -7 20 0 6 6 3 10 -10 10 -13 0 -16 -4 -10 -10z"/>
<path d="M1181 3981 c-9 -6 -10 -11 -2 -15 6 -4 11 -2 11 4 0 7 7 10 15 7 8
-4 17 -2 20 3 8 12 -25 13 -44 1z"/>
<path d="M1140 3935 c0 -8 2 -15 4 -15 2 0 6 7 10 15 3 8 1 15 -4 15 -6 0 -10
-7 -10 -15z"/>
<path d="M1113 3905 c0 -14 3 -25 8 -25 5 0 8 11 7 25 -1 14 -5 25 -9 25 -4 0
-6 -11 -6 -25z"/>
<path d="M1066 3874 c-6 -16 2 -18 22 -5 11 7 11 9 -1 14 -9 3 -18 -1 -21 -9z"/>
<path d="M995 3793 c-20 -15 -19 -15 5 -9 14 3 29 6 33 6 5 0 5 5 2 10 -8 14
-16 12 -40 -7z"/>
<path d="M930 3720 c0 -5 9 -10 19 -10 11 0 23 5 26 10 4 6 -5 10 -19 10 -14
0 -26 -4 -26 -10z"/>
<path d="M895 3670 c-3 -5 1 -10 10 -10 9 0 13 5 10 10 -3 6 -8 10 -10 10 -2
0 -7 -4 -10 -10z"/>
<path d="M860 3626 c-16 -16 -12 -25 11 -23 11 1 25 9 30 19 7 13 5 16 -11 15
-11 -1 -25 -6 -30 -11z"/>
<path d="M830 3560 c20 -13 33 -13 25 0 -3 6 -14 10 -23 10 -15 0 -15 -2 -2
-10z"/>
<path d="M803 3523 c-3 -8 -3 -17 1 -20 6 -6 36 15 36 27 0 13 -32 7 -37 -7z"/>
<path d="M775 3470 c3 -5 12 -7 20 -3 21 7 19 13 -6 13 -11 0 -18 -4 -14 -10z"/>
<path d="M676 3284 c-8 -22 1 -31 16 -16 9 9 9 15 1 23 -7 7 -12 5 -17 -7z"/>
<path d="M657 3193 c-4 -3 -7 -11 -7 -17 0 -6 5 -5 12 2 6 6 9 14 7 17 -3 3
-9 2 -12 -2z"/>
<path d="M606 3115 c-3 -8 -1 -15 4 -15 6 0 10 4 10 10 0 5 7 6 17 3 11 -4 14
-3 9 5 -10 17 -33 15 -40 -3z"/>
<path d="M3610 2514 c-8 -3 -44 -14 -80 -26 -82 -26 -157 -63 -245 -123 l-70
-47 -67 11 c-98 16 -229 14 -285 -5 -74 -25 -143 -73 -174 -123 -16 -25 -29
-51 -29 -60 0 -8 10 5 23 29 62 117 218 164 450 135 l57 -7 -85 -80 c-139
-131 -263 -312 -309 -453 -24 -75 -35 -183 -25 -249 24 -153 122 -230 289
-229 159 1 258 54 464 251 77 74 172 156 210 183 71 51 168 88 235 90 27 1 30
3 11 6 -38 7 -127 -15 -198 -49 -66 -33 -154 -102 -287 -226 -103 -96 -165
-143 -240 -180 -163 -81 -305 -59 -367 55 -108 198 -3 502 270 776 99 101 62
93 292 62 204 -28 339 -4 424 75 55 52 55 90 -2 141 -23 20 -56 39 -73 43 -36
7 -166 7 -189 0z m220 -33 c64 -46 22 -138 -88 -192 -43 -22 -59 -24 -182 -23
-95 1 -157 7 -209 20 l-75 19 80 52 c198 130 393 181 474 124z"/>
<path d="M2651 2104 c0 -11 3 -14 6 -6 3 7 2 16 -1 19 -3 4 -6 -2 -5 -13z"/>
<path d="M4120 1390 c-9 -6 -10 -10 -3 -10 6 0 15 5 18 10 8 12 4 12 -15 0z"/>
<path d="M4070 1340 c0 -5 5 -10 11 -10 5 0 7 5 4 10 -3 6 -8 10 -11 10 -2 0
-4 -4 -4 -10z"/>
<path d="M4010 1239 c0 -5 5 -7 10 -4 6 3 10 8 10 11 0 2 -4 4 -10 4 -5 0 -10
-5 -10 -11z"/>
<path d="M3330 730 c8 -5 20 -10 25 -10 6 0 3 5 -5 10 -8 5 -19 10 -25 10 -5
0 -3 -5 5 -10z"/>
</g>
</svg>
